<svg width="38" height="38" viewBox="0 0 38 38" fill="none" xmlns="http://www.w3.org/2000/svg">
<path d="M27.7082 10.2917H27.724M11.0832 3.16675H26.9165C31.2888 3.16675 34.8332 6.71116 34.8332 11.0834V26.9167C34.8332 31.289 31.2888 34.8334 26.9165 34.8334H11.0832C6.71092 34.8334 3.1665 31.289 3.1665 26.9167V11.0834C3.1665 6.71116 6.71092 3.16675 11.0832 3.16675ZM25.3332 18.0026C25.5286 19.3203 25.3035 20.6661 24.69 21.8485C24.0764 23.031 23.1057 23.9898 21.9157 24.5887C20.7258 25.1876 19.3774 25.3961 18.0622 25.1845C16.747 24.9728 15.532 24.3519 14.59 23.4099C13.648 22.468 13.0271 21.253 12.8154 19.9378C12.6038 18.6225 12.8123 17.2741 13.4112 16.0842C14.0101 14.8943 14.969 13.9235 16.1514 13.31C17.3338 12.6964 18.6796 12.4713 19.9973 12.6667C21.3415 12.8661 22.5858 13.4924 23.5467 14.4532C24.5075 15.4141 25.1339 16.6585 25.3332 18.0026Z" stroke="#F3F3F3" stroke-width="4" stroke-linecap="round" stroke-linejoin="round"/>
</svg>
